<svg width="34" height="121" viewBox="0 0 34 121" fill="none" xmlns="http://www.w3.org/2000/svg">
<path d="M33.8011 121V122H34.8011V121H33.8011ZM33.8011 0.679995H34.8011V-0.320005H33.8011V0.679995ZM16.6811 0.679995V-0.320005H16.3089L16.0272 -0.0766633L16.6811 0.679995ZM0.20105 14.92L-0.452761 14.1633L-0.79895 14.4625V14.92H0.20105ZM0.20105 36.84H-0.79895V38.9618L0.837544 37.6113L0.20105 36.84ZM16.6811 23.24H17.6811V21.1182L16.0446 22.4687L16.6811 23.24ZM16.6811 121H15.6811V122H16.6811V121ZM34.8011 121V0.679995H32.8011V121H34.8011ZM33.8011 -0.320005H16.6811V1.67999H33.8011V-0.320005ZM16.0272 -0.0766633L-0.452761 14.1633L0.854861 15.6767L17.3349 1.43665L16.0272 -0.0766633ZM-0.79895 14.92V36.84H1.20105V14.92H-0.79895ZM0.837544 37.6113L17.3175 24.0113L16.0446 22.4687L-0.435444 36.0687L0.837544 37.6113ZM15.6811 23.24V121H17.6811V23.24H15.6811ZM16.6811 122H33.8011V120H16.6811V122Z" fill="white" fill-opacity="0.69"/>
</svg>
