<svg width="95" height="123" viewBox="0 0 95 123" fill="none" xmlns="http://www.w3.org/2000/svg">
<path d="M12.64 18.24H11.64V19.24H12.64V18.24ZM64.64 18.24L65.337 18.957L67.1034 17.24H64.64V18.24ZM36 46.08L35.303 45.3629L35 45.6575V46.08H36ZM36 63.36H35V64.36H36V63.36ZM11.52 86.24L12.3009 85.6153L11.4783 84.5871L10.7086 85.6555L11.52 86.24ZM0.800001 101.12L-0.0113678 100.535L-0.450534 101.145L0.0126963 101.737L0.800001 101.12ZM57.76 46.56L57.0687 45.8374L55.4979 47.3403L57.6612 47.5551L57.76 46.56ZM87.36 18.24L88.0513 18.9626L88.36 18.6672V18.24H87.36ZM87.36 0.639992H88.36V-0.360008H87.36V0.639992ZM12.64 0.639992V-0.360008H11.64V0.639992H12.64ZM12.64 19.24H64.64V17.24H12.64V19.24ZM63.943 17.5229L35.303 45.3629L36.697 46.797L65.337 18.957L63.943 17.5229ZM35 46.08V63.36H37V46.08H35ZM36 64.36H50.08V62.36H36V64.36ZM50.08 64.36C58.3159 64.36 64.9783 65.7507 69.55 68.608C74.054 71.423 76.6 75.7004 76.6 81.76H78.6C78.6 75.0196 75.706 70.097 70.61 66.912C65.5817 63.7693 58.4841 62.36 50.08 62.36V64.36ZM76.6 81.76C76.6 88.5229 73.3441 94.1221 68.0995 98.0603C62.8392 102.01 55.5791 104.28 47.68 104.28V106.28C55.9409 106.28 63.6408 103.91 69.3005 99.6596C74.9759 95.3979 78.6 89.2371 78.6 81.76H76.6ZM47.68 104.28C37.108 104.28 22.9938 98.9814 12.3009 85.6153L10.7391 86.8647C21.8062 100.699 36.492 106.28 47.68 106.28V104.28ZM10.7086 85.6555L-0.0113678 100.535L1.61137 101.705L12.3314 86.8245L10.7086 85.6555ZM0.0126963 101.737C5.34653 108.547 13.5031 114.034 22.1596 117.816C30.8187 121.6 40.0753 123.72 47.68 123.72V121.72C40.4047 121.72 31.4213 119.68 22.9604 115.984C14.4969 112.286 6.65348 106.973 1.58731 100.503L0.0126963 101.737ZM47.68 123.72C73.4934 123.72 95.88 106.956 95.88 81.76H93.88C93.88 105.524 72.7466 121.72 47.68 121.72V123.72ZM95.88 81.76C95.88 71.4194 92.1367 62.908 85.4605 56.7073C78.8014 50.5223 69.2963 46.7005 57.8588 45.5649L57.6612 47.5551C68.7837 48.6595 77.8386 52.3577 84.0995 58.1727C90.3433 63.972 93.88 71.9406 93.88 81.76H95.88ZM58.4513 47.2826L88.0513 18.9626L86.6687 17.5174L57.0687 45.8374L58.4513 47.2826ZM88.36 18.24V0.639992H86.36V18.24H88.36ZM87.36 -0.360008H12.64V1.63999H87.36V-0.360008ZM11.64 0.639992V18.24H13.64V0.639992H11.64Z" fill="white" fill-opacity="0.7"/>
</svg>
