<svg width="88" height="123" viewBox="0 0 88 123" fill="none" xmlns="http://www.w3.org/2000/svg">
<path d="M14.1908 32.12L13.4303 32.7693L14.1465 33.6083L14.9114 32.8134L14.1908 32.12ZM46.5108 64.76L46.0049 63.8974L46.0004 63.9001L46.5108 64.76ZM0.910841 105.56L-0.0225048 105.201L-0.089159 105.374V105.56H0.910841ZM0.910841 123H-0.089159V124H0.910841V123ZM87.1508 123V124H88.1508V123H87.1508ZM87.1508 105.56H88.1508V104.56H87.1508V105.56ZM19.9508 105.56L19.0912 105.049L18.1934 106.56H19.9508V105.56ZM55.4708 79.48L55.9738 80.3443L55.9777 80.3421L55.4708 79.48ZM2.99084 19L2.30653 18.2708L1.61086 18.9237L2.23028 19.6493L2.99084 19ZM14.9114 32.8134C22.9086 24.5026 35.7777 18.72 45.7108 18.72V16.72C35.164 16.72 21.7931 22.7774 13.4703 31.4266L14.9114 32.8134ZM45.7108 18.72C56.6397 18.72 62.0579 22.6018 64.7999 26.6964C67.5903 30.8631 67.7508 35.4541 67.7508 37.08H69.7508C69.7508 35.3459 69.5914 30.2569 66.4617 25.5836C63.2838 20.8382 57.182 16.72 45.7108 16.72V18.72ZM67.7508 37.08C67.7508 38.8756 67.5346 42.4853 64.7512 47.1691C61.958 51.8693 56.5383 57.7199 46.005 63.8974L47.0167 65.6226C57.7634 59.3201 63.4637 53.2506 66.4705 48.1909C69.4871 43.1147 69.7508 39.1244 69.7508 37.08H67.7508ZM46.0004 63.9001C21.3211 78.5485 8.13005 84.0044 -0.0225048 105.201L1.84419 105.919C9.69163 85.5156 22.1006 80.4115 47.0213 65.6199L46.0004 63.9001ZM-0.089159 105.56V123H1.91084V105.56H-0.089159ZM0.910841 124H87.1508V122H0.910841V124ZM88.1508 123V105.56H86.1508V123H88.1508ZM87.1508 104.56H19.9508V106.56H87.1508V104.56ZM20.8105 106.071C23.9921 100.717 27.8677 97.1376 33.4028 93.4739C38.9933 89.7734 46.1514 86.0606 55.9738 80.3443L54.9679 78.6157C45.2703 84.2594 37.9484 88.0666 32.2989 91.8061C26.5939 95.5824 22.4696 99.3635 19.0912 105.049L20.8105 106.071ZM55.9777 80.3421C70.6764 71.7005 78.4596 62.5305 82.5578 54.6619C86.6561 46.7932 87.0308 40.2992 87.0308 37.08H85.0308C85.0308 40.1008 84.6856 46.2468 80.7839 53.7381C76.8821 61.2295 69.3853 70.1395 54.964 78.6179L55.9777 80.3421ZM87.0308 37.08C87.0308 33.7506 86.712 24.278 81.3617 15.6145C75.9604 6.86868 65.5396 -0.880001 45.7108 -0.880001V1.12C64.9221 1.12 74.6613 8.57132 79.66 16.6654C84.7097 24.842 85.0308 33.8494 85.0308 37.08H87.0308ZM45.7108 -0.880001C30.1761 -0.880001 12.8235 8.40106 2.30653 18.2708L3.67515 19.7292C13.9582 10.0789 30.8455 1.12 45.7108 1.12V-0.880001ZM2.23028 19.6493L13.4303 32.7693L14.9514 31.4707L3.7514 18.3507L2.23028 19.6493Z" fill="white" fill-opacity="0.7"/>
</svg>
